# xmcd CD database file
#
# Track frame offsets:
#	150
#	15527
#	37187
#
# Disc length: 748 seconds
#
# Revision: 0
# Processed by: cddbd v1.5.1PL0 Copyright (c) Steve Scherf et al.
# Submitted via: CDex 1.51
#
DISCID=1d02ea03
DTITLE=GERONIMO - IN THE GROUND
DYEAR=1900
DGENRE=Hardcore
TTITLE0=IN THE GROUND
TTITLE1=UNAVOIDABLE WAY
TTITLE2=UNITED FORCES(COVER OF S.O.D.)
EXTD=
EXTT0=
EXTT1=
EXTT2=
PLAYORDER=
